<svg width="23" height="32" viewBox="0 0 23 32" fill="none" xmlns="http://www.w3.org/2000/svg">
<path d="M6.15283 23.7041C7.14217 24.9388 8.14978 26.4913 8.67708 27.429C9.31924 28.6481 9.5855 29.4712 10.0632 30.9456C10.3425 31.7531 10.6088 31.9979 11.1674 31.9979C11.7782 31.9979 12.0575 31.5864 12.2716 30.9456C12.718 29.5624 13.0625 28.51 13.6081 27.5072C15.7121 23.5478 19.1421 20.7345 21.0738 16.8793C21.0738 16.8793 22.3451 14.5246 22.3451 11.2268C22.3451 8.15307 21.0921 6.01709 21.0921 6.01709L6.16066 23.7301L6.15283 23.7041Z" fill="#34A853"/>
<path d="M1.08859 16.4624C2.29198 19.1975 4.58651 21.594 6.15275 23.7039L14.4538 13.8836C14.4538 13.8836 13.2817 15.4153 11.1647 15.4153C8.80491 15.4153 6.88366 13.5398 6.88366 11.1694C6.88366 9.53871 7.85733 8.4082 7.85733 8.4082C1.74901 9.31469 2.08837 10.7916 1.07031 16.4572L1.08859 16.4624Z" fill="#FBBC04"/>
<path d="M14.5581 0.513184C17.3251 1.40144 19.6744 3.27433 21.0841 6.00943L14.4537 13.9021C14.4537 13.9021 15.4273 12.7664 15.4273 11.141C15.4273 8.72109 13.3808 6.89508 11.1724 6.89508C9.07625 6.89508 7.8833 8.4085 7.8833 8.4085C8.39233 7.25195 13.6523 0.906517 14.5659 0.515788L14.5581 0.513184Z" fill="#4285F4"/>
<path d="M2.60254 3.98543C4.25231 2.02658 7.14462 0 11.1385 0C13.0676 0 14.532 0.510552 14.532 0.510552L7.87553 8.40327C7.42654 8.16023 3.04631 4.75647 2.60254 3.97501V3.98543Z" fill="#1A73E8"/>
<path d="M1.08853 16.4624C1.08853 16.4624 0 14.3056 0 11.2006C0 8.25715 1.15379 5.67834 2.61039 4.01123L7.88339 8.43949L1.09636 16.4624H1.08853Z" fill="#EA4335"/>
</svg>
