<svg width="32" height="32" viewBox="0 0 32 32" fill="none" xmlns="http://www.w3.org/2000/svg">
<rect width="32" height="32" rx="16" fill="#2CA5E0"/>
<rect x="5.6001" y="5.6001" width="20.8" height="20.8" rx="10.4" fill="white"/>
<path d="M19.5821 10.0259C17.9355 10.83 10.8753 14.2785 8.92459 15.2184C7.61634 15.8204 8.38221 16.3849 8.38221 16.3849C8.38221 16.3849 9.49896 16.8363 10.4563 17.175C11.4136 17.5136 11.9241 17.1374 11.9241 17.1374L16.4232 13.5629C18.0186 12.2836 17.6358 13.337 17.2528 13.7887C16.4232 14.7671 15.0511 16.3096 13.9024 17.5513C13.3919 18.0781 13.6471 18.5296 13.8705 18.7554C14.7001 19.5832 16.9657 21.2764 17.0932 21.3893C17.7673 21.952 19.0932 22.762 19.2949 21.0506L20.0926 15.1433C20.3479 13.1491 20.6031 11.3053 20.635 10.7786C20.7308 9.49912 19.5821 10.0259 19.5821 10.0259Z" fill="#2CA5E0"/>
</svg>
