<svg width="54" height="54" viewBox="0 0 54 54" fill="none" xmlns="http://www.w3.org/2000/svg">
<rect width="54" height="54" rx="10" fill="#F2CF22"/>
<path fill-rule="evenodd" clip-rule="evenodd" d="M42.9266 20.0062C42.8274 19.9999 42.7194 20 42.6075 20L42.5795 20H38.1897C34.5713 20 31.4751 22.8482 31.4751 26.5625C31.4751 30.2768 34.5713 33.125 38.1897 33.125H42.5795L42.6075 33.125C42.7194 33.1251 42.8274 33.1251 42.9266 33.1188C44.3963 33.026 45.6962 31.8759 45.8054 30.2694C45.8126 30.164 45.8125 30.0505 45.8125 29.9452L45.8125 29.9167V23.2083L45.8125 23.1798C45.8125 23.0745 45.8126 22.961 45.8054 22.8556C45.6962 21.2492 44.3963 20.099 42.9266 20.0062ZM37.8004 28.3125C38.732 28.3125 39.4872 27.529 39.4872 26.5625C39.4872 25.596 38.732 24.8125 37.8004 24.8125C36.8689 24.8125 36.1137 25.596 36.1137 26.5625C36.1137 27.529 36.8689 28.3125 37.8004 28.3125Z" fill="#3E4757"/>
<path fill-rule="evenodd" clip-rule="evenodd" d="M42.6064 35.75C42.8673 35.7433 43.0648 35.9849 42.994 36.2361C42.6426 37.4829 42.0851 38.5456 41.1903 39.4403C39.8807 40.75 38.22 41.3312 36.1683 41.607C34.1747 41.8751 31.6273 41.875 28.4112 41.875H24.7138C21.4977 41.875 18.9503 41.8751 16.9567 41.607C14.905 41.3312 13.2443 40.75 11.9347 39.4403C10.625 38.1307 10.0438 36.47 9.76799 34.4183C9.49995 32.4247 9.49997 29.8773 9.5 26.6612V26.4638C9.49997 23.2477 9.49995 20.7003 9.76799 18.7067C10.0438 16.655 10.625 14.9943 11.9347 13.6847C13.2443 12.375 14.905 11.7938 16.9567 11.518C18.9503 11.25 21.4977 11.25 24.7138 11.25L28.4112 11.25C31.6273 11.25 34.1747 11.25 36.1683 11.518C38.22 11.7938 39.8807 12.375 41.1903 13.6847C42.0851 14.5794 42.6426 15.6421 42.994 16.8888C43.0648 17.1401 42.8673 17.3818 42.6063 17.375L38.1895 17.375C33.2254 17.375 28.85 21.2966 28.85 26.5625C28.85 31.8284 33.2254 35.75 38.1895 35.75L42.6064 35.75ZM16.0625 18.25C15.3376 18.25 14.75 18.8376 14.75 19.5625C14.75 20.2874 15.3376 20.875 16.0625 20.875H23.0625C23.7874 20.875 24.375 20.2874 24.375 19.5625C24.375 18.8376 23.7874 18.25 23.0625 18.25H16.0625Z" fill="#3E4757"/>
</svg>
