<svg width="30" height="30" viewBox="0 0 30 30" fill="none" xmlns="http://www.w3.org/2000/svg">
<path fill-rule="evenodd" clip-rule="evenodd" d="M15 30C23.2843 30 30 23.2843 30 15C30 6.71573 23.2843 0 15 0C6.71573 0 0 6.71573 0 15C0 23.2843 6.71573 30 15 30ZM18.0455 9.7045C18.4848 10.1438 18.4848 10.8562 18.0455 11.2955L14.341 15L18.0455 18.7045C18.4848 19.1438 18.4848 19.8562 18.0455 20.2955C17.6062 20.7348 16.8938 20.7348 16.4545 20.2955L11.9545 15.7955C11.5152 15.3562 11.5152 14.6438 11.9545 14.2045L16.4545 9.7045C16.8938 9.26516 17.6062 9.26516 18.0455 9.7045Z" fill="white"/>
</svg>
